<svg width="113" height="76" viewBox="0 0 113 76" fill="none" xmlns="http://www.w3.org/2000/svg">
<mask id="path-1-inside-1_106_18" fill="white">
<path d="M17.0844 76L40.9231 0H32.4471H23.8387L0 76H8.2111H17.0844Z"/>
</mask>
<path d="M17.0844 76L40.9231 0H32.4471H23.8387L0 76H8.2111H17.0844Z" fill="#FCFCFC"/>
<path d="M40.9231 0L91.6338 15.9063L113.293 -53.1469L40.9231 -53.1469V0ZM17.0844 76V129.147H56.114L67.7951 91.9063L17.0844 76ZM0 76L-50.7107 60.0937L-72.3704 129.147H0V76ZM23.8387 0V-53.1469H-15.1909L-26.8721 -15.9063L23.8387 0ZM-9.78766 -15.9063L-33.6263 60.0937L67.7951 91.9063L91.6338 15.9063L-9.78766 -15.9063ZM50.7107 91.9063L74.5494 15.9063L-26.8721 -15.9063L-50.7107 60.0937L50.7107 91.9063ZM23.8387 53.1469H32.4471V-53.1469H23.8387V53.1469ZM32.4471 53.1469H40.9231V-53.1469H32.4471V53.1469ZM17.0844 22.8531H8.2111V129.147H17.0844V22.8531ZM8.2111 22.8531H0V129.147H8.2111V22.8531Z" fill="#7C4DFF" mask="url(#path-1-inside-1_106_18)"/>
<path d="M64.8006 41.4367C64.8006 46.8156 63.7548 51.353 61.663 55.049C59.5712 58.7293 56.7481 61.5209 53.1936 63.424C49.6392 65.3113 45.6758 66.255 41.3035 66.255C36.8998 66.255 32.9207 65.3034 29.3663 63.4004C25.8275 61.4816 23.0123 58.6821 20.9205 55.0018C18.8445 51.3058 17.8064 46.7841 17.8064 41.4367C17.8064 36.0579 18.8445 31.5283 20.9205 27.8481C23.0123 24.1521 25.8275 21.3604 29.3663 19.4731C32.9207 17.57 36.8998 16.6185 41.3035 16.6185C45.6758 16.6185 49.6392 17.57 53.1936 19.4731C56.7481 21.3604 59.5712 24.1521 61.663 27.8481C63.7548 31.5283 64.8006 36.0579 64.8006 41.4367ZM51.3063 41.4367C51.3063 38.5429 50.921 36.1051 50.1503 34.1234C49.3954 32.126 48.2709 30.6161 46.7768 29.5938C45.2984 28.5558 43.474 28.0368 41.3035 28.0368C39.1331 28.0368 37.3009 28.5558 35.8067 29.5938C34.3283 30.6161 33.2038 32.126 32.4332 34.1234C31.6782 36.1051 31.3008 38.5429 31.3008 41.4367C31.3008 44.3306 31.6782 46.7763 32.4332 48.7737C33.2038 50.7554 34.3283 52.2652 35.8067 53.3033C37.3009 54.3256 39.1331 54.8367 41.3035 54.8367C43.474 54.8367 45.2984 54.3256 46.7768 53.3033C48.2709 52.2652 49.3954 50.7554 50.1503 48.7737C50.921 46.7763 51.3063 44.3306 51.3063 41.4367ZM96.9145 32.3776C96.7887 30.8049 96.1989 29.5781 95.1452 28.6974C94.1071 27.8166 92.5265 27.3762 90.4033 27.3762C89.0507 27.3762 87.9419 27.5414 87.0769 27.8717C86.2276 28.1862 85.5985 28.6187 85.1896 29.1692C84.7806 29.7197 84.5683 30.3488 84.5526 31.0565C84.5211 31.6384 84.6234 32.1653 84.8593 32.6371C85.1109 33.0932 85.5041 33.51 86.0389 33.8875C86.5736 34.2492 87.2578 34.5795 88.0913 34.8783C88.9249 35.1771 89.9157 35.4445 91.0638 35.6804L95.0272 36.5297C97.7009 37.0959 99.9893 37.843 101.892 38.7709C103.795 39.6988 105.352 40.7919 106.563 42.0501C107.774 43.2926 108.663 44.6924 109.229 46.2494C109.811 47.8064 110.11 49.505 110.126 51.3452C110.11 54.5221 109.316 57.2116 107.743 59.4134C106.17 61.6153 103.921 63.2903 100.996 64.4384C98.0862 65.5865 94.5868 66.1606 90.4976 66.1606C86.2984 66.1606 82.6338 65.5394 79.504 64.2969C76.39 63.0544 73.9679 61.1435 72.2379 58.5642C70.5235 55.9691 69.6585 52.6506 69.6428 48.6086H82.0991C82.1777 50.087 82.5473 51.3294 83.2079 52.336C83.8684 53.3426 84.7964 54.1054 85.9917 54.6244C87.2027 55.1434 88.6418 55.4029 90.3089 55.4029C91.7087 55.4029 92.8804 55.2299 93.824 54.8839C94.7677 54.5379 95.4833 54.0582 95.9709 53.4448C96.4584 52.8314 96.7101 52.1315 96.7258 51.3452C96.7101 50.606 96.4663 49.9611 95.9945 49.4107C95.5384 48.8445 94.7834 48.3412 93.7297 47.9008C92.6759 47.4447 91.2526 47.0201 89.4596 46.6269L84.647 45.5888C80.369 44.6609 76.9955 43.1117 74.5262 40.9413C72.0727 38.7552 70.8538 35.7748 70.8695 32.0002C70.8538 28.9333 71.6717 26.2517 73.3231 23.9555C74.9902 21.6435 77.2943 19.8427 80.2354 18.553C83.1922 17.2634 86.5815 16.6185 90.4033 16.6185C94.3037 16.6185 97.6773 17.2712 100.524 18.5766C103.371 19.882 105.565 21.7221 107.106 24.097C108.663 26.4562 109.449 29.2164 109.465 32.3776H96.9145Z" fill="#1E1E1E"/>
</svg>
