<svg width="300" height="300" viewBox="0 0 300 300" fill="none" xmlns="http://www.w3.org/2000/svg">
<path d="M149.82 162.93C147.76 162.93 146.08 164.6 146.08 166.67C146.08 168.74 147.76 170.41 149.82 170.41C151.88 170.41 153.56 168.73 153.56 166.67C153.56 164.61 151.88 162.93 149.82 162.93ZM149.56 166.67C149.56 166.52 149.67 166.41 149.82 166.41C149.96 166.41 150.08 166.52 150.08 166.67C150.08 166.95 149.56 166.95 149.56 166.67Z" fill="#4216BD"/>
<path d="M149.86 152.02C145.58 152.02 141.58 153.92 138.87 157.24C138.17 158.1 138.3 159.36 139.16 160.05C139.53 160.35 139.98 160.5 140.42 160.5C141 160.5 141.58 160.25 141.97 159.76C143.91 157.38 146.79 156.01 149.86 156.01C152.93 156.01 155.74 157.35 157.68 159.68C158.39 160.53 159.65 160.64 160.5 159.94C161.35 159.23 161.47 157.97 160.76 157.12C158.06 153.87 154.09 152 149.86 152V152.02Z" fill="#4216BD"/>
<path d="M149.88 141.28C142.98 141.28 136.5 143.99 132.11 148.71C131.36 149.52 131.4 150.78 132.21 151.54C132.6 151.9 133.08 152.08 133.57 152.08C134.11 152.08 134.64 151.87 135.04 151.44C138.68 147.53 144.09 145.28 149.88 145.28C155.67 145.28 160.97 147.48 164.61 151.31C165.37 152.11 166.63 152.15 167.44 151.39C168.24 150.63 168.27 149.36 167.51 148.56C163.12 143.93 156.7 141.28 149.88 141.28Z" fill="#4216BD"/>
<path d="M149.91 131.12C140.3 131.12 131.29 134.92 125.18 141.54C124.43 142.35 124.48 143.62 125.3 144.37C125.68 144.72 126.17 144.9 126.65 144.9C127.19 144.9 127.73 144.68 128.12 144.26C133.47 138.46 141.41 135.13 149.9 135.13C158.39 135.13 166.17 138.39 171.51 144.08C172.27 144.88 173.53 144.92 174.34 144.17C175.14 143.41 175.18 142.15 174.43 141.34C168.33 134.85 159.39 131.13 149.9 131.13L149.91 131.12Z" fill="#4216BD"/>
<path d="M208.73 189.35C204.18 189.35 200.01 190.93 196.71 193.59L180.15 177.09C186.26 170.35 190.16 161.57 190.69 151.9H204.28C205.23 157.55 210.15 161.86 216.06 161.86C222.65 161.86 228.01 156.5 228.01 149.91C228.01 143.32 222.65 137.96 216.06 137.96C210.16 137.96 205.24 142.26 204.28 147.9H190.71C190.3 138.11 186.44 129.2 180.32 122.36L196.53 106.09C199.85 108.83 204.1 110.47 208.73 110.47C219.33 110.47 227.96 101.84 227.96 91.23C227.96 80.62 219.33 71.99 208.73 71.99C198.13 71.99 189.49 80.62 189.49 91.23C189.49 95.77 191.07 99.94 193.72 103.24L177.52 119.52C170.68 113.23 161.7 109.22 151.81 108.75V95.75C157.54 94.88 161.95 89.92 161.95 83.94C161.95 77.35 156.59 71.99 150 71.99C143.41 71.99 138.05 77.35 138.05 83.94C138.05 89.78 142.26 94.66 147.81 95.69V108.75C138.06 109.22 129.19 113.13 122.39 119.27L106.29 103.23C108.93 99.94 110.51 95.77 110.51 91.23C110.51 80.62 101.88 71.99 91.27 71.99C80.66 71.99 72.04 80.62 72.04 91.23C72.04 101.84 80.67 110.47 91.27 110.47C95.91 110.47 100.16 108.82 103.49 106.08L119.56 122.09C113.3 128.97 109.34 137.99 108.93 147.91H95.72C94.77 142.27 89.85 137.96 83.94 137.96C77.35 137.96 71.99 143.32 71.99 149.91C71.99 156.5 77.35 161.86 83.94 161.86C89.85 161.86 94.77 157.55 95.72 151.91H108.95C109.49 161.67 113.46 170.53 119.67 177.29L103.38 193.66C100.07 190.97 95.86 189.35 91.27 189.35C80.67 189.35 72.04 197.98 72.04 208.59C72.04 219.2 80.67 227.83 91.27 227.83C101.87 227.83 110.51 219.2 110.51 208.59C110.51 204 108.89 199.79 106.2 196.48L122.52 180.1C129.3 186.19 138.13 190.04 147.82 190.51V204.31C142.27 205.34 138.05 210.21 138.05 216.06C138.05 222.65 143.41 228.01 150 228.01C156.59 228.01 161.95 222.65 161.95 216.06C161.95 210.09 157.55 205.13 151.82 204.25V190.51C161.61 190.04 170.52 186.11 177.33 179.92L193.87 196.39C191.13 199.71 189.49 203.96 189.49 208.59C189.49 219.2 198.12 227.83 208.73 227.83C219.34 227.83 227.96 219.2 227.96 208.59C227.96 197.98 219.33 189.35 208.73 189.35ZM216.06 141.96C220.44 141.96 224.01 145.53 224.01 149.91C224.01 154.29 220.44 157.86 216.06 157.86C211.68 157.86 208.11 154.29 208.11 149.91C208.12 145.52 211.68 141.96 216.06 141.96ZM193.49 91.23C193.49 82.83 200.32 75.99 208.73 75.99C217.14 75.99 223.96 82.83 223.96 91.23C223.96 99.63 217.13 106.47 208.73 106.47C200.33 106.47 193.49 99.63 193.49 91.23ZM76.04 91.23C76.04 82.83 82.87 75.99 91.27 75.99C99.67 75.99 106.51 82.83 106.51 91.23C106.51 95.23 104.96 98.88 102.43 101.6C102.31 101.67 102.2 101.76 102.09 101.87C101.98 101.98 101.89 102.1 101.81 102.22C99.07 104.85 95.37 106.47 91.27 106.47C82.87 106.47 76.04 99.63 76.04 91.23ZM83.94 157.86C79.56 157.86 75.99 154.29 75.99 149.91C75.99 145.53 79.56 141.96 83.94 141.96C88.32 141.96 91.89 145.53 91.89 149.91C91.89 154.29 88.32 157.86 83.94 157.86ZM106.51 208.59C106.51 216.99 99.68 223.83 91.27 223.83C82.86 223.83 76.04 216.99 76.04 208.59C76.04 200.19 82.87 193.35 91.27 193.35C99.67 193.35 106.51 200.19 106.51 208.59ZM142.05 83.94C142.05 79.56 145.62 75.99 150 75.99C154.38 75.99 157.95 79.56 157.95 83.94C157.95 88.32 154.58 91.69 150.37 91.88C150.19 91.83 150.01 91.8 149.81 91.8C149.64 91.8 149.48 91.82 149.33 91.86C145.26 91.52 142.05 88.09 142.05 83.94ZM157.95 216.06C157.95 220.44 154.38 224.01 150 224.01C145.62 224.01 142.05 220.44 142.05 216.06C142.05 211.68 145.62 208.11 150 208.11C154.38 208.11 157.95 211.68 157.95 216.06ZM149.82 186.56C129.55 186.56 113.04 170.14 112.89 149.91V149.63C112.89 139.78 116.76 130.82 123.08 124.19C123.53 123.71 124 123.24 124.48 122.79C130.96 116.67 139.65 112.86 149.21 112.71H150.41C160.14 112.86 168.97 116.79 175.49 123.11H175.5C175.92 123.52 176.32 123.93 176.72 124.35C182.94 130.98 186.75 139.86 186.75 149.63C186.75 169.99 170.18 186.56 149.82 186.56ZM208.73 223.83C200.32 223.83 193.49 216.99 193.49 208.59C193.49 200.19 200.32 193.35 208.73 193.35C217.14 193.35 223.96 200.19 223.96 208.59C223.96 216.99 217.13 223.83 208.73 223.83Z" fill="#7C4DFF"/>
</svg>
